<svg width="140" height="23" viewBox="0 0 140 23" fill="none" xmlns="http://www.w3.org/2000/svg">
<path d="M7.07648 20.849C5.75356 20.9219 4.47231 20.724 3.23273 20.2552C2.49315 19.9635 1.80565 19.4115 1.17023 18.599C0.54523 17.7865 0.165022 16.9688 0.0296053 16.1458C-0.0328947 15.8438 0.0035636 15.5833 0.13898 15.3646C0.26398 15.1458 0.472314 15.0052 0.76398 14.9427C1.73273 14.7656 2.42544 14.6771 2.84211 14.6771C3.19627 14.6771 3.47231 14.7292 3.67023 14.8333C3.87856 14.9375 3.99836 15.151 4.02961 15.474C4.23794 16.7969 5.29523 17.4583 7.20148 17.4583C7.85773 17.4583 8.41502 17.3333 8.87335 17.0833C9.17544 16.9583 9.36294 16.7552 9.43585 16.474C9.60252 15.9635 9.4671 15.6302 9.0296 15.474C8.66502 15.3281 7.92544 15.0937 6.81086 14.7708C6.72752 14.7396 6.59211 14.724 6.40461 14.724C6.21711 14.7135 6.07648 14.6979 5.98273 14.6771C5.75356 14.5833 5.20669 14.401 4.34211 14.1302C3.47752 13.849 2.83169 13.5937 2.40461 13.3646C1.62336 12.875 1.05565 12.1927 0.70148 11.3177C0.32648 10.3177 0.305647 9.31771 0.63898 8.31771C0.98273 7.31771 1.56086 6.625 2.37336 6.23958C2.43586 6.19792 2.52961 6.11979 2.65461 6.00521C2.79002 5.88021 2.90981 5.79167 3.01398 5.73958C3.12856 5.6875 3.26398 5.68229 3.42023 5.72396C3.59731 5.75521 3.80565 5.6875 4.04523 5.52083C4.28481 5.35417 4.48273 5.27083 4.63898 5.27083C4.75356 5.28125 4.87336 5.28125 4.99836 5.27083C5.13377 5.26042 5.28481 5.23958 5.45148 5.20833C5.62856 5.17708 5.76398 5.15625 5.85773 5.14583C7.4619 4.96875 8.97752 5.20313 10.4046 5.84896C11.6025 6.33854 12.4254 7.29687 12.8734 8.72396C12.9775 9.20312 13.0192 9.52604 12.9984 9.69271C12.9567 9.94271 12.889 10.125 12.7952 10.2396C12.7119 10.3437 12.5556 10.4167 12.3265 10.4583C11.8369 10.5417 11.0661 10.6354 10.014 10.7396C9.67023 10.7604 9.41502 10.6042 9.24835 10.2708C9.18585 10.1667 9.1546 10.0885 9.1546 10.0365C9.0921 9.75521 8.97752 9.51562 8.81085 9.31771C8.64419 9.10937 8.44106 8.95312 8.20148 8.84896C7.97231 8.73437 7.73273 8.65625 7.48273 8.61458C7.23273 8.5625 6.96711 8.53646 6.68586 8.53646C5.59211 8.53646 4.88898 8.71875 4.57648 9.08333C4.26398 9.46875 4.30565 9.77604 4.70148 10.0052C4.92023 10.1094 5.14419 10.1979 5.37336 10.2708C5.60252 10.3437 5.89419 10.4271 6.24836 10.5208C6.60252 10.6146 6.8369 10.6771 6.95148 10.7083C9.07648 11.3021 10.29 11.6458 10.5921 11.7396C11.3734 12.0208 12.0504 12.4687 12.6234 13.0833C13.1963 13.6979 13.5036 14.3906 13.5452 15.1615C13.6077 16.2656 13.4984 17.1094 13.2171 17.6927C12.6338 18.9323 11.5869 19.8385 10.0765 20.4115C9.05565 20.7865 8.05565 20.9323 7.07648 20.849Z" fill="white"/>
<path d="M14.0371 9.88021C14.0371 9.64062 14.0267 9.47917 14.0059 9.39583C13.9954 9.0625 13.8236 8.86979 13.4902 8.81771H13.2402C12.834 8.75521 12.5788 8.66146 12.4746 8.53646C12.36 8.41146 12.2923 8.13542 12.2715 7.70833C12.2715 7.57292 12.2663 7.36458 12.2559 7.08333C12.2454 6.80208 12.2402 6.59375 12.2402 6.45833C12.2923 5.875 12.584 5.54167 13.1152 5.45833C13.1777 5.44792 13.2611 5.44271 13.3652 5.44271C13.4694 5.44271 13.5527 5.4375 13.6152 5.42708C13.8548 5.42708 13.9746 5.30208 13.9746 5.05208C14.0371 4.20833 14.0579 3.63021 14.0371 3.31771C13.9746 2.86979 14.1569 2.48437 14.584 2.16146C14.8027 1.96354 15.0684 1.79688 15.3809 1.66146C15.4746 1.60938 15.6048 1.54688 15.7715 1.47396C15.9486 1.40104 16.0996 1.32813 16.2246 1.25521C16.36 1.18229 16.485 1.10417 16.5996 1.02083C16.6725 0.96875 16.8965 0.901042 17.2715 0.817708C17.4173 0.796875 17.5527 0.833333 17.6777 0.927083C17.8131 1.01042 17.9017 1.125 17.9434 1.27083C18.0684 1.67708 18.1204 1.95312 18.0996 2.09896C18.0475 2.35937 18.0163 2.64062 18.0059 2.94271C18.0059 3.23437 18.0163 3.56771 18.0371 3.94271C18.0579 4.30729 18.0684 4.57813 18.0684 4.75521C18.0684 5.08854 18.1048 5.29688 18.1777 5.38021C18.2506 5.45313 18.4381 5.48958 18.7402 5.48958C18.8027 5.48958 18.9434 5.47917 19.1621 5.45833C19.3913 5.4375 19.5371 5.4375 19.5996 5.45833C20.1204 5.47917 20.4121 5.76042 20.4746 6.30208C20.485 6.34375 20.5059 6.49479 20.5371 6.75521C20.5788 7.01563 20.5996 7.19271 20.5996 7.28646C20.61 7.38021 20.6048 7.52604 20.584 7.72396C20.5736 7.91146 20.5371 8.08854 20.4746 8.25521C20.36 8.49479 20.2559 8.65104 20.1621 8.72396C20.0788 8.78646 19.9121 8.81771 19.6621 8.81771H18.5527C18.5215 8.81771 18.4798 8.81771 18.4277 8.81771C18.3861 8.81771 18.3548 8.81771 18.334 8.81771C18.3131 8.81771 18.2819 8.82292 18.2402 8.83333C18.209 8.83333 18.1881 8.83854 18.1777 8.84896C18.1673 8.85937 18.1517 8.88021 18.1309 8.91146C18.11 8.93229 18.0944 8.96354 18.084 9.00521C18.084 9.04687 18.0788 9.09896 18.0684 9.16146C18.0684 9.21354 18.0684 9.28125 18.0684 9.36458C18.0684 9.58333 18.0579 10.1146 18.0371 10.9583C18.0163 11.7917 18.0059 12.3281 18.0059 12.5677C18.0059 12.974 18.0215 13.4792 18.0527 14.0833C18.0944 14.6875 18.1204 15.1302 18.1309 15.4115C18.1413 15.6823 18.1309 15.9844 18.0996 16.3177C18.0684 16.3698 18.0788 16.4844 18.1309 16.6615C18.1934 16.974 18.3861 17.1563 18.709 17.2083H19.5684C20.1204 17.2083 20.4538 17.4844 20.5684 18.0365C20.6934 18.6302 20.7871 19.2396 20.8496 19.8646C20.9121 20.2083 20.7559 20.4635 20.3809 20.6302C19.6934 20.8281 18.9954 20.9271 18.2871 20.9271C17.6413 20.9271 17.0475 20.849 16.5059 20.6927C15.8392 20.5677 15.2819 20.2083 14.834 19.6146C14.3861 19.0104 14.1413 18.349 14.0996 17.6302C14.0579 16.9115 14.0371 14.3281 14.0371 9.88021Z" fill="white"/>
<path d="M19.7165 11.1302V6.94271C19.7165 6.49479 19.7269 6.21354 19.7477 6.09896C19.8102 5.67188 20.0654 5.4375 20.5134 5.39583C21.2842 5.33333 22.055 5.30208 22.8259 5.30208C23.3988 5.34375 23.7061 5.67708 23.7477 6.30208C23.7581 6.55208 23.7634 6.93229 23.7634 7.44271C23.7634 7.95313 23.7686 8.34896 23.779 8.63021C23.7998 9.72396 23.779 11.7292 23.7165 14.6458C23.7165 14.9167 23.7373 15.1615 23.779 15.3802C23.8831 16.1094 24.1748 16.6458 24.654 16.9896C25.1331 17.3229 25.7373 17.4271 26.4665 17.3021C26.5498 17.2813 26.6696 17.2552 26.8259 17.224C26.9925 17.1823 27.1175 17.1458 27.2009 17.1146C27.4613 17.0521 27.6904 16.9583 27.8884 16.8333C28.0967 16.6979 28.2634 16.5573 28.3884 16.4115C28.5238 16.2656 28.6384 16.0781 28.7321 15.849C28.8259 15.6094 28.8936 15.401 28.9352 15.224C28.9873 15.0365 29.0238 14.7969 29.0446 14.5052C29.0654 14.2135 29.0759 13.9844 29.0759 13.8177C29.0863 13.651 29.0915 13.4271 29.0915 13.1458V6.52083C29.1123 6.08333 29.1904 5.78646 29.3259 5.63021C29.4717 5.47396 29.7581 5.38542 30.1852 5.36458C30.8936 5.3125 31.555 5.32292 32.1696 5.39583C32.5029 5.41667 32.7321 5.50521 32.8571 5.66146C32.9925 5.80729 33.0706 6.0625 33.0915 6.42708C33.1436 7.4375 33.154 8.25521 33.1227 8.88021V13.3021C33.1331 13.5833 33.1384 14.0208 33.1384 14.6146C33.1384 15.2083 33.1436 15.6562 33.154 15.9583C33.1956 16.6771 33.1852 17.9063 33.1227 19.6458C33.1123 20.2813 32.7738 20.599 32.1071 20.599C31.2113 20.599 30.6331 20.5885 30.3727 20.5677C30.0498 20.5677 29.8571 20.5365 29.7946 20.474C29.555 20.2344 29.3206 20.1146 29.0915 20.1146C28.9873 20.1146 28.8831 20.1302 28.779 20.1615C28.6852 20.1823 28.5602 20.224 28.404 20.2865C28.2477 20.349 28.1488 20.3906 28.1071 20.4115C27.2529 20.7344 26.3988 20.8958 25.5446 20.8958C23.7529 20.8958 22.2477 20.3281 21.029 19.1927C20.4769 18.6719 20.1019 17.8594 19.904 16.7552C19.8519 16.4948 19.8102 16.2344 19.779 15.974C19.7581 15.7135 19.7425 15.4271 19.7321 15.1146C19.7217 14.8021 19.7165 14.5521 19.7165 14.3646C19.7061 14.1771 19.7061 13.8906 19.7165 13.5052C19.7165 13.1198 19.7165 12.8594 19.7165 12.724C19.7165 12.5885 19.7269 12.401 19.7477 12.1615C19.7686 11.9219 19.779 11.7187 19.779 11.5521C19.779 11.3854 19.7581 11.2448 19.7165 11.1302Z" fill="white"/>
<path d="M42.3959 13.3021C42.3854 13.2083 42.3698 12.9219 42.349 12.4427C42.3281 11.9635 42.3021 11.5885 42.2709 11.3177C42.1146 10.4844 41.7709 9.80208 41.2396 9.27083C40.7188 8.73958 40.0521 8.47396 39.2396 8.47396C38.5313 8.47396 37.9531 8.63021 37.5052 8.94271C37.0573 9.24479 36.7188 9.72917 36.4896 10.3958C36 11.8333 35.9115 13.1979 36.224 14.4896C36.3906 15.2187 36.8386 15.974 37.5677 16.7552C37.9323 17.1198 38.4584 17.3021 39.1459 17.3021C39.6667 17.3021 40.1563 17.2031 40.6146 17.0052C41.0834 16.7969 41.4115 16.5208 41.599 16.1771C42.1719 15.1354 42.4375 14.1771 42.3959 13.3021ZM42.1146 5.52083C42.1146 5.5 42.125 5.02604 42.1459 4.09896C42.1667 3.17188 42.1563 2.70833 42.1146 2.70833C42.0729 2.41667 42.0834 1.88542 42.1459 1.11458C42.1459 0.489583 42.4219 0.145833 42.974 0.0833333C44.1094 -0.0208333 45.0052 0.0104167 45.6615 0.177083C45.9531 0.239583 46.1042 0.411458 46.1146 0.692708C46.1563 1.10937 46.1771 1.55729 46.1771 2.03646C46.1979 3.85937 46.2084 7.90104 46.2084 14.1615C46.2084 16.0677 46.1875 17.8177 46.1459 19.4115C46.1459 19.7344 46.0834 19.974 45.9584 20.1302C45.8438 20.276 45.6406 20.3698 45.349 20.4115C44.724 20.5156 44.2656 20.5677 43.974 20.5677C43.4427 20.5677 42.9844 20.4635 42.599 20.2552C42.2865 20.099 41.974 20.0885 41.6615 20.224C40.724 20.6198 39.8594 20.8177 39.0677 20.8177C37.4636 20.8177 36 20.2865 34.6771 19.224C33.3542 18.151 32.5469 16.8385 32.2552 15.2865C31.8073 13.1823 31.8959 11.25 32.5209 9.48958C32.9167 8.36458 33.6511 7.29167 34.724 6.27083C35.0781 5.91667 35.724 5.60938 36.6615 5.34896C37.599 5.08854 38.3594 4.95833 38.9427 4.95833C39.7344 4.95833 40.5052 5.10417 41.2552 5.39583C41.6094 5.52083 41.8959 5.5625 42.1146 5.52083Z" fill="white"/>
<path d="M50.7627 13.2083C50.7627 13.5208 50.7731 14.3229 50.794 15.6146C50.8148 16.8958 50.8148 17.6927 50.794 18.0052C50.794 18.1198 50.7784 18.3438 50.7471 18.6771C50.7159 19.0104 50.7106 19.2656 50.7315 19.4427C50.7731 19.7344 50.7054 19.9792 50.5284 20.1771C50.3513 20.375 50.1013 20.4844 49.7784 20.5052C49.0909 20.5469 48.3981 20.5469 47.7002 20.5052C47.0856 20.4531 46.7731 20.1354 46.7627 19.5521C46.7211 18.6667 46.7002 16.9896 46.7002 14.5208C46.7002 14.2187 46.695 13.7865 46.6846 13.224C46.6742 12.651 46.669 12.1354 46.669 11.6771C46.669 11.2083 46.6794 10.7708 46.7002 10.3646C46.7211 9.96875 46.7263 9.29687 46.7159 8.34896C46.7054 7.40104 46.7211 6.72917 46.7627 6.33333C46.7836 6.08333 46.8409 5.88021 46.9346 5.72396C47.0284 5.56771 47.1638 5.45313 47.3409 5.38021C47.5179 5.30729 47.6898 5.26042 47.8565 5.23958C48.0336 5.21875 48.2471 5.20833 48.4971 5.20833C48.8304 5.20833 49.3409 5.26042 50.0284 5.36458C50.4346 5.42708 50.6898 5.76042 50.794 6.36458C50.8148 6.4375 50.8148 6.60417 50.794 6.86458C50.7731 7.11458 50.7627 7.27604 50.7627 7.34896C50.8044 7.35938 50.8148 8.33854 50.794 10.2865C50.7731 12.224 50.7627 13.1979 50.7627 13.2083ZM47.3409 4.22396C46.9554 4.11979 46.7627 3.88021 46.7627 3.50521V0.817708C46.794 0.578125 46.9398 0.385417 47.2002 0.239583C47.4711 0.09375 47.7419 0.0208333 48.0127 0.0208333C48.5752 -0.0208333 49.1846 0 49.8409 0.0833333C50.1325 0.125 50.3356 0.208333 50.4502 0.333333C50.5752 0.447917 50.6481 0.65625 50.669 0.958333C50.669 2.52083 50.6586 3.36979 50.6377 3.50521C50.544 3.98437 50.2784 4.24479 49.8409 4.28646C49.6013 4.32813 49.1742 4.34375 48.5596 4.33333C47.945 4.3125 47.5388 4.27604 47.3409 4.22396Z" fill="white"/>
<path d="M54.8952 14.3958C55.0723 15.3333 55.4629 16.0833 56.0671 16.6458C56.6713 17.2083 57.4421 17.4896 58.3796 17.4896C59.1817 17.4896 59.8848 17.2396 60.489 16.7396C61.1036 16.2396 61.4994 15.6198 61.6765 14.8802C61.989 13.474 61.9213 12.1042 61.4734 10.7708C61.2442 10.0729 60.8431 9.53125 60.2702 9.14583C59.7077 8.76042 59.0567 8.56771 58.3171 8.56771C57.4629 8.56771 56.7181 8.83854 56.0827 9.38021C55.4473 9.92187 55.0359 10.6979 54.8484 11.7083C54.8067 11.9479 54.7911 12.3854 54.8015 13.0208C54.8119 13.6562 54.8431 14.1146 54.8952 14.3958ZM58.0515 5.11458C60.0619 5.11458 61.7702 5.63021 63.1765 6.66146C64.5931 7.68229 65.4681 9.16146 65.8015 11.099C66.0515 12.526 66.0202 13.9427 65.7077 15.349C65.3015 17.1823 64.4265 18.5781 63.0827 19.5365C61.739 20.4844 60.1192 20.9583 58.2234 20.9583C56.5775 20.9583 55.0723 20.4792 53.7077 19.5208C52.3431 18.5521 51.4681 17.2917 51.0827 15.7396C50.5306 13.4687 50.7129 11.151 51.6296 8.78646C51.6609 8.69271 51.7025 8.59896 51.7546 8.50521C51.8067 8.41146 51.8588 8.33333 51.9109 8.27083C51.9629 8.19792 52.0306 8.11458 52.114 8.02083C52.1973 7.91667 52.2598 7.83333 52.3015 7.77083C53.7598 6 55.6765 5.11458 58.0515 5.11458Z" fill="white"/>
<path d="M70.2934 19.4115C70.2934 19.7031 70.2413 19.9219 70.1371 20.0677C70.0434 20.2031 69.8611 20.3281 69.5902 20.4427C69.3611 20.5052 69.1996 20.5365 69.1059 20.5365C67.9704 20.5365 67.1996 20.5156 66.7934 20.474C66.5642 20.4531 66.3715 20.3698 66.2152 20.224C66.0694 20.0781 65.9861 19.9063 65.9652 19.7083V17.2396C65.9861 16.8958 66.059 16.6615 66.184 16.5365C66.309 16.4115 66.5329 16.3385 66.8559 16.3177C67.2413 16.2969 68.0642 16.2865 69.3246 16.2865C69.8871 16.3385 70.1996 16.6458 70.2621 17.2083V17.4583C70.2621 17.5729 70.2673 17.901 70.2777 18.4427C70.2881 18.974 70.2934 19.2969 70.2934 19.4115Z" fill="white"/>
<path d="M77.254 20.849C75.9311 20.9219 74.6498 20.724 73.4102 20.2552C72.6706 19.9635 71.9831 19.4115 71.3477 18.599C70.7227 17.7865 70.3425 16.9688 70.2071 16.1458C70.1446 15.8438 70.1811 15.5833 70.3165 15.3646C70.4415 15.1458 70.6498 15.0052 70.9415 14.9427C71.9102 14.7656 72.6029 14.6771 73.0196 14.6771C73.3738 14.6771 73.6498 14.7292 73.8477 14.8333C74.0561 14.9375 74.1758 15.151 74.2071 15.474C74.4154 16.7969 75.4727 17.4583 77.379 17.4583C78.0352 17.4583 78.5925 17.3333 79.0508 17.0833C79.3529 16.9583 79.5404 16.7552 79.6133 16.474C79.78 15.9635 79.6446 15.6302 79.2071 15.474C78.8425 15.3281 78.1029 15.0937 76.9883 14.7708C76.905 14.7396 76.7696 14.724 76.5821 14.724C76.3946 14.7135 76.254 14.6979 76.1602 14.6771C75.9311 14.5833 75.3842 14.401 74.5196 14.1302C73.655 13.849 73.0092 13.5937 72.5821 13.3646C71.8008 12.875 71.2331 12.1927 70.879 11.3177C70.504 10.3177 70.4831 9.31771 70.8165 8.31771C71.1602 7.31771 71.7383 6.625 72.5508 6.23958C72.6133 6.19792 72.7071 6.11979 72.8321 6.00521C72.9675 5.88021 73.0873 5.79167 73.1915 5.73958C73.3061 5.6875 73.4415 5.68229 73.5977 5.72396C73.7748 5.75521 73.9831 5.6875 74.2227 5.52083C74.4623 5.35417 74.6602 5.27083 74.8165 5.27083C74.9311 5.28125 75.0508 5.28125 75.1758 5.27083C75.3113 5.26042 75.4623 5.23958 75.629 5.20833C75.8061 5.17708 75.9415 5.15625 76.0352 5.14583C77.6394 4.96875 79.155 5.20313 80.5821 5.84896C81.78 6.33854 82.6029 7.29687 83.0508 8.72396C83.155 9.20312 83.1967 9.52604 83.1758 9.69271C83.1342 9.94271 83.0665 10.125 82.9727 10.2396C82.8894 10.3437 82.7331 10.4167 82.504 10.4583C82.0144 10.5417 81.2436 10.6354 80.1915 10.7396C79.8477 10.7604 79.5925 10.6042 79.4258 10.2708C79.3633 10.1667 79.3321 10.0885 79.3321 10.0365C79.2696 9.75521 79.155 9.51562 78.9883 9.31771C78.8217 9.10937 78.6186 8.95312 78.379 8.84896C78.1498 8.73437 77.9102 8.65625 77.6602 8.61458C77.4102 8.5625 77.1446 8.53646 76.8633 8.53646C75.7696 8.53646 75.0665 8.71875 74.754 9.08333C74.4415 9.46875 74.4831 9.77604 74.879 10.0052C75.0977 10.1094 75.3217 10.1979 75.5508 10.2708C75.78 10.3437 76.0717 10.4271 76.4258 10.5208C76.78 10.6146 77.0144 10.6771 77.129 10.7083C79.254 11.3021 80.4675 11.6458 80.7696 11.7396C81.5508 12.0208 82.2279 12.4687 82.8008 13.0833C83.3738 13.6979 83.6811 14.3906 83.7227 15.1615C83.7852 16.2656 83.6758 17.1094 83.3946 17.6927C82.8113 18.9323 81.7644 19.8385 80.254 20.4115C79.2331 20.7865 78.2331 20.9323 77.254 20.849Z" fill="white"/>
<path d="M90.7771 10.8333C91.35 10.8646 92.2042 10.8802 93.3396 10.8802C93.4438 10.8802 93.5271 10.8333 93.5896 10.7396C93.6521 10.6458 93.6625 10.5417 93.6208 10.4271C93.6 10.3854 93.5688 10.3125 93.5271 10.2083C93.4958 10.1042 93.4646 10.026 93.4333 9.97396C93.1417 9.51562 92.7458 9.15625 92.2458 8.89583C91.7458 8.63542 91.2146 8.50521 90.6521 8.50521C90.0479 8.50521 89.4854 8.65104 88.9646 8.94271C88.4438 9.23437 88.0427 9.66667 87.7615 10.2396C87.6781 10.4167 87.6677 10.5625 87.7302 10.6771C87.7927 10.7812 87.9125 10.8333 88.0896 10.8333H90.7771ZM90.2615 20.8958C89.2302 20.9688 88.1 20.6771 86.8708 20.0208C85.4125 19.2813 84.3656 18.1615 83.7302 16.6615C83.1469 15.2135 83.0011 13.4427 83.2927 11.349C83.2927 11.3177 83.3031 11.2812 83.324 11.2396C83.3448 11.1875 83.3552 11.151 83.3552 11.1302C83.3865 10.1198 83.7146 9.15104 84.3396 8.22396C84.975 7.29687 85.7823 6.55729 86.7615 6.00521C87.7406 5.45313 88.7354 5.17708 89.7458 5.17708C89.7771 5.17708 89.8448 5.1875 89.949 5.20833C90.0531 5.22917 90.1052 5.22917 90.1052 5.20833C90.4073 5.10417 90.7563 5.05208 91.1521 5.05208C91.2979 5.05208 91.4542 5.0625 91.6208 5.08333C91.7979 5.10417 91.9386 5.125 92.0427 5.14583C92.1469 5.16667 92.3083 5.20833 92.5271 5.27083C92.7458 5.33333 92.8761 5.375 92.9177 5.39583C92.9698 5.40625 93.1313 5.45833 93.4021 5.55208L93.8083 5.69271C95.0479 6.11979 96.0323 6.89583 96.7615 8.02083C97.6365 9.375 98.0531 10.6771 98.0115 11.9271C98.0115 12.3646 98.0323 12.651 98.074 12.7865C98.1365 13.0156 98.1156 13.2969 98.0115 13.6302C97.8865 14.099 97.5948 14.3333 97.1365 14.3333C96.9802 14.3333 96.4542 14.349 95.5583 14.3802C94.6625 14.4115 94.1365 14.4062 93.9802 14.3646C93.6156 14.3437 92.9906 14.3437 92.1052 14.3646C91.2302 14.3854 90.5948 14.375 90.199 14.3333C89.5844 14.2708 89.1052 14.3333 88.7615 14.5208C88.5427 14.6458 88.3292 14.6354 88.1208 14.4896C88.0479 14.4479 87.9802 14.4323 87.9177 14.4427C87.8552 14.4427 87.8083 14.4531 87.7771 14.474C87.7458 14.4844 87.6938 14.5208 87.6208 14.5833C87.5479 14.6458 87.5011 14.6875 87.4802 14.7083C87.449 14.7292 87.4281 14.7552 87.4177 14.7865C87.4073 14.8073 87.3969 14.8281 87.3865 14.849C87.3865 14.8698 87.3917 14.8958 87.4021 14.9271C87.4125 14.9479 87.4229 14.9687 87.4333 14.9896C87.4438 15.0104 87.4542 15.0417 87.4646 15.0833C87.4854 15.1146 87.5011 15.1406 87.5115 15.1615C87.7823 15.901 88.225 16.474 88.8396 16.8802C89.4542 17.2865 90.1625 17.4896 90.9646 17.4896C91.0583 17.4896 91.1521 17.4844 91.2458 17.474C91.35 17.4531 91.4386 17.4375 91.5115 17.4271C91.5948 17.4063 91.6886 17.375 91.7927 17.3333C91.9073 17.2917 91.9906 17.2604 92.0427 17.2396C92.1052 17.2188 92.199 17.1771 92.324 17.1146C92.449 17.0521 92.5323 17.0104 92.574 16.9896C92.6156 16.9583 92.7042 16.9063 92.8396 16.8333C92.9854 16.7604 93.074 16.7135 93.1052 16.6927C93.1677 16.6302 93.199 16.5677 93.199 16.5052C93.199 16.4635 93.2042 16.4271 93.2146 16.3958C93.225 16.3542 93.2406 16.3177 93.2615 16.2865C93.2927 16.2448 93.3188 16.2135 93.3396 16.1927C93.3604 16.1615 93.3865 16.1302 93.4177 16.099C93.449 16.0573 93.475 16.0208 93.4958 15.9896C93.9229 15.3021 94.199 14.9062 94.324 14.8021C94.4594 14.6771 94.6313 14.6146 94.8396 14.6146C95.1 14.6146 95.4854 14.6771 95.9958 14.8021C96.1313 14.8333 96.3083 14.8594 96.5271 14.8802C96.7563 14.8906 96.9073 14.901 96.9802 14.9115C97.7927 15.0365 98.0896 15.4583 97.8708 16.1771C97.225 18.2604 95.9073 19.6615 93.9177 20.3802C92.7198 20.7656 91.5011 20.9375 90.2615 20.8958Z" fill="white"/>
<path d="M104.191 14.0677C104.43 14.0052 104.581 13.8698 104.644 13.6615C104.821 13.1719 105.134 12.3854 105.581 11.3021C106.04 10.2187 106.368 9.38021 106.566 8.78646C106.66 8.47396 106.826 8.04167 107.066 7.48958C107.305 6.9375 107.467 6.54167 107.55 6.30208C107.842 5.61458 108.378 5.27083 109.16 5.27083C109.316 5.28125 109.545 5.28646 109.847 5.28646C110.149 5.28646 110.378 5.29167 110.535 5.30208C110.608 5.30208 110.884 5.36458 111.363 5.48958C111.509 5.53125 111.608 5.61979 111.66 5.75521C111.722 5.89063 111.733 6.03646 111.691 6.19271C111.545 6.74479 111.384 7.20833 111.206 7.58333C111.061 7.92708 110.831 8.45312 110.519 9.16146C110.206 9.85937 109.936 10.4844 109.706 11.0365C109.477 11.5885 109.274 12.1302 109.097 12.6615C108.91 13.224 108.566 14.0833 108.066 15.2396C107.576 16.3854 107.238 17.276 107.05 17.9115C106.988 18.1198 106.904 18.3385 106.8 18.5677C106.706 18.7865 106.592 19.0313 106.456 19.3021C106.331 19.5625 106.238 19.7708 106.175 19.9271C106.019 20.3333 105.701 20.5365 105.222 20.5365H103.394C102.831 20.5365 102.456 20.2708 102.269 19.7396C101.842 18.5104 101.524 17.6771 101.316 17.2396C100.899 16.3646 100.514 15.4167 100.16 14.3958C99.9096 13.6875 99.3783 12.4167 98.5658 10.5833C98.1179 9.57292 97.6179 8.3125 97.0658 6.80208C96.9617 6.55208 96.894 6.35417 96.8627 6.20833C96.8315 6.05208 96.8367 5.90104 96.8783 5.75521C96.92 5.59896 97.0398 5.48438 97.2377 5.41146C97.4356 5.33854 97.7169 5.30208 98.0815 5.30208C98.269 5.30208 98.5398 5.29688 98.894 5.28646C99.2481 5.27604 99.5086 5.27083 99.6752 5.27083C100.467 5.32292 100.972 5.67708 101.191 6.33333C101.243 6.5 101.363 6.81771 101.55 7.28646C101.738 7.74479 101.863 8.10937 101.925 8.38021L102.019 8.75521L103.941 13.6615C103.983 13.7656 104.066 13.901 104.191 14.0677Z" fill="white"/>
<path d="M118.011 10.8333C118.584 10.8646 119.438 10.8802 120.573 10.8802C120.678 10.8802 120.761 10.8333 120.823 10.7396C120.886 10.6458 120.896 10.5417 120.855 10.4271C120.834 10.3854 120.803 10.3125 120.761 10.2083C120.73 10.1042 120.698 10.026 120.667 9.97396C120.375 9.51562 119.98 9.15625 119.48 8.89583C118.98 8.63542 118.448 8.50521 117.886 8.50521C117.282 8.50521 116.719 8.65104 116.198 8.94271C115.678 9.23437 115.276 9.66667 114.995 10.2396C114.912 10.4167 114.901 10.5625 114.964 10.6771C115.026 10.7812 115.146 10.8333 115.323 10.8333H118.011ZM117.495 20.8958C116.464 20.9688 115.334 20.6771 114.105 20.0208C112.646 19.2813 111.599 18.1615 110.964 16.6615C110.381 15.2135 110.235 13.4427 110.526 11.349C110.526 11.3177 110.537 11.2812 110.558 11.2396C110.579 11.1875 110.589 11.151 110.589 11.1302C110.62 10.1198 110.948 9.15104 111.573 8.22396C112.209 7.29687 113.016 6.55729 113.995 6.00521C114.974 5.45313 115.969 5.17708 116.98 5.17708C117.011 5.17708 117.079 5.1875 117.183 5.20833C117.287 5.22917 117.339 5.22917 117.339 5.20833C117.641 5.10417 117.99 5.05208 118.386 5.05208C118.532 5.05208 118.688 5.0625 118.855 5.08333C119.032 5.10417 119.172 5.125 119.276 5.14583C119.381 5.16667 119.542 5.20833 119.761 5.27083C119.98 5.33333 120.11 5.375 120.151 5.39583C120.204 5.40625 120.365 5.45833 120.636 5.55208L121.042 5.69271C122.282 6.11979 123.266 6.89583 123.995 8.02083C124.87 9.375 125.287 10.6771 125.245 11.9271C125.245 12.3646 125.266 12.651 125.308 12.7865C125.37 13.0156 125.349 13.2969 125.245 13.6302C125.12 14.099 124.829 14.3333 124.37 14.3333C124.214 14.3333 123.688 14.349 122.792 14.3802C121.896 14.4115 121.37 14.4062 121.214 14.3646C120.849 14.3437 120.224 14.3437 119.339 14.3646C118.464 14.3854 117.829 14.375 117.433 14.3333C116.818 14.2708 116.339 14.3333 115.995 14.5208C115.776 14.6458 115.563 14.6354 115.355 14.4896C115.282 14.4479 115.214 14.4323 115.151 14.4427C115.089 14.4427 115.042 14.4531 115.011 14.474C114.98 14.4844 114.928 14.5208 114.855 14.5833C114.782 14.6458 114.735 14.6875 114.714 14.7083C114.683 14.7292 114.662 14.7552 114.651 14.7865C114.641 14.8073 114.631 14.8281 114.62 14.849C114.62 14.8698 114.625 14.8958 114.636 14.9271C114.646 14.9479 114.657 14.9687 114.667 14.9896C114.678 15.0104 114.688 15.0417 114.698 15.0833C114.719 15.1146 114.735 15.1406 114.745 15.1615C115.016 15.901 115.459 16.474 116.073 16.8802C116.688 17.2865 117.396 17.4896 118.198 17.4896C118.292 17.4896 118.386 17.4844 118.48 17.474C118.584 17.4531 118.672 17.4375 118.745 17.4271C118.829 17.4063 118.922 17.375 119.026 17.3333C119.141 17.2917 119.224 17.2604 119.276 17.2396C119.339 17.2188 119.433 17.1771 119.558 17.1146C119.683 17.0521 119.766 17.0104 119.808 16.9896C119.849 16.9583 119.938 16.9063 120.073 16.8333C120.219 16.7604 120.308 16.7135 120.339 16.6927C120.401 16.6302 120.433 16.5677 120.433 16.5052C120.433 16.4635 120.438 16.4271 120.448 16.3958C120.459 16.3542 120.474 16.3177 120.495 16.2865C120.526 16.2448 120.553 16.2135 120.573 16.1927C120.594 16.1615 120.62 16.1302 120.651 16.099C120.683 16.0573 120.709 16.0208 120.73 15.9896C121.157 15.3021 121.433 14.9062 121.558 14.8021C121.693 14.6771 121.865 14.6146 122.073 14.6146C122.334 14.6146 122.719 14.6771 123.23 14.8021C123.365 14.8333 123.542 14.8594 123.761 14.8802C123.99 14.8906 124.141 14.901 124.214 14.9115C125.026 15.0365 125.323 15.4583 125.105 16.1771C124.459 18.2604 123.141 19.6615 121.151 20.3802C119.954 20.7656 118.735 20.9375 117.495 20.8958Z" fill="white"/>
<path d="M138.596 9.88021C138.659 10.6927 138.69 12.0469 138.69 13.9427C138.68 14.724 138.669 15.7188 138.659 16.9271C138.659 18.125 138.649 19 138.628 19.5521C138.607 19.9271 138.544 20.1823 138.44 20.3177C138.346 20.4427 138.133 20.5156 137.8 20.5365C137.039 20.5573 136.227 20.526 135.362 20.4427C134.956 20.4219 134.742 20.1771 134.721 19.7083C134.659 19.0729 134.628 18.4219 134.628 17.7552C134.628 17.0781 134.633 16.0937 134.643 14.8021C134.654 13.5 134.659 12.5104 134.659 11.8333C134.659 11.2812 134.617 10.7135 134.534 10.1302C134.503 9.61979 134.263 9.22917 133.815 8.95833C133.378 8.67708 132.883 8.53646 132.331 8.53646C131.643 8.53646 131.018 8.74479 130.456 9.16146C129.904 9.57812 129.565 10.1354 129.44 10.8333C129.419 11.0729 129.367 11.8437 129.284 13.1458C129.284 14.1875 129.274 14.8698 129.253 15.1927C129.211 15.8073 129.221 16.8646 129.284 18.3646C129.284 19 129.274 19.4063 129.253 19.5833C129.211 19.8854 129.128 20.099 129.003 20.224C128.888 20.349 128.685 20.4219 128.393 20.4427C127.758 20.4844 127.065 20.5052 126.315 20.5052C125.649 20.5052 125.305 20.1719 125.284 19.5052C125.263 18.5885 125.263 17.651 125.284 16.6927V8.95833C125.263 8.57292 125.253 7.71875 125.253 6.39583C125.253 6.14583 125.274 5.97396 125.315 5.88021C125.419 5.58854 125.581 5.42708 125.8 5.39583C126.248 5.3125 126.695 5.27083 127.143 5.27083C127.56 5.27083 127.919 5.29167 128.221 5.33333C128.274 5.34375 128.315 5.35417 128.346 5.36458C128.388 5.375 128.419 5.39063 128.44 5.41146C128.471 5.42188 128.492 5.4375 128.503 5.45833C128.524 5.46875 128.539 5.48958 128.55 5.52083C128.56 5.54167 128.565 5.5625 128.565 5.58333C128.576 5.59375 128.586 5.61979 128.596 5.66146C128.607 5.69271 128.612 5.71354 128.612 5.72396C128.623 5.93229 128.716 6.03646 128.893 6.03646C129.06 6.03646 129.201 5.99479 129.315 5.91146C130.232 5.29688 131.425 4.98958 132.893 4.98958C133.716 4.98958 134.508 5.11458 135.268 5.36458C136.32 5.71875 137.112 6.23958 137.643 6.92708C138.175 7.61458 138.492 8.59896 138.596 9.88021Z" fill="white"/>
</svg>
